<svg width="902" height="901" viewBox="0 0 902 901" fill="none" xmlns="http://www.w3.org/2000/svg">
<rect x="451.354" y="0.719437" width="636.002" height="637" transform="rotate(45 451.354 0.719437)" fill="url(#paint0_linear_1_31)"/>
<rect x="451.21" y="93" width="505.922" height="508" transform="rotate(45 451.21 93)" fill="#C3C3C3"/>
<rect x="450.803" y="181" width="127" height="127" transform="rotate(45 450.803 181)" fill="url(#paint1_linear_1_31)"/>
<rect x="719.467" y="361" width="63.5" height="444.358" transform="rotate(45 719.467 361)" fill="url(#paint2_linear_1_31)"/>
<rect x="630.552" y="269.656" width="63.5" height="316.284" transform="rotate(45 630.552 269.656)" fill="url(#paint3_linear_1_31)"/>
<rect x="181.669" y="452.57" width="63.5" height="375.142" transform="rotate(-45 181.669 452.57)" fill="#000C26"/>
<rect x="225.299" y="316.2" width="63.5" height="316.985" transform="rotate(-45 225.299 316.2)" fill="#1C2331"/>
<defs>
<linearGradient id="paint0_linear_1_31" x1="769.354" y1="0.719486" x2="769.354" y2="637.719" gradientUnits="userSpaceOnUse">
<stop stop-color="#414141"/>
<stop offset="1" stop-color="#000717"/>
</linearGradient>
<linearGradient id="paint1_linear_1_31" x1="514.303" y1="181" x2="514.303" y2="308" gradientUnits="userSpaceOnUse">
<stop stop-color="#3C3D3E"/>
<stop offset="1" stop-color="#222834"/>
</linearGradient>
<linearGradient id="paint2_linear_1_31" x1="751.664" y1="716.298" x2="655.849" y2="686.899" gradientUnits="userSpaceOnUse">
<stop stop-color="#000C26"/>
<stop offset="1" stop-color="#414141"/>
</linearGradient>
<linearGradient id="paint3_linear_1_31" x1="662.302" y1="269.656" x2="662.302" y2="585.94" gradientUnits="userSpaceOnUse">
<stop stop-color="#3F3F40"/>
<stop offset="0.56" stop-color="#1C2331"/>
</linearGradient>
</defs>
</svg>
